<?xml version="1.0" standalone="no"?>
<!DOCTYPE svg PUBLIC "-//W3C//DTD SVG 20010904//EN"
 "http://www.w3.org/TR/2001/REC-SVG-20010904/DTD/svg10.dtd">
<svg version="1.0" xmlns="http://www.w3.org/2000/svg"
 width="1024.000000pt" height="1024.000000pt" viewBox="0 0 1024.000000 1024.000000"
 preserveAspectRatio="xMidYMid meet">
<metadata>
Created by potrace 1.11, written by Peter Selinger 2001-2013
</metadata>
<g transform="translate(0.000000,1024.000000) scale(0.100000,-0.100000)"
fill="#000000" stroke="none">
<path d="M655 10234 c-11 -2 -45 -9 -75 -15 -217 -44 -432 -226 -523 -445 -13
-32 -31 -84 -38 -114 -21 -83 -21 -8998 0 -9079 72 -279 283 -490 562 -562 81
-21 8997 -21 9078 0 280 72 490 282 562 562 21 81 21 8997 0 9078 -71 276
-256 466 -546 560 -46 14 -433 16 -4525 17 -2461 1 -4484 0 -4495 -2z m4559
-1219 c47 -170 91 -320 96 -332 8 -20 17 -23 59 -23 69 0 334 -35 456 -60
1062 -218 1966 -905 2459 -1870 203 -395 343 -891 372 -1311 5 -77 11 -102 23
-108 9 -4 161 -48 338 -97 178 -49 323 -91 323 -94 0 -3 -145 -45 -323 -94
-177 -49 -329 -93 -337 -97 -12 -6 -18 -40 -28 -146 -89 -1010 -631 -1951
-1472 -2553 -507 -363 -1114 -589 -1724 -642 -123 -11 -139 -15 -147 -33 -5
-11 -48 -159 -95 -330 -47 -170 -89 -314 -92 -319 -3 -5 -47 141 -98 324 -51
183 -97 336 -101 340 -4 4 -69 12 -143 18 -433 38 -906 177 -1295 381 -935
490 -1601 1356 -1829 2378 -36 162 -76 435 -76 523 0 37 -4 52 -17 58 -10 5
-161 49 -335 97 -175 49 -318 91 -318 95 0 4 143 46 318 95 174 48 325 92 335
97 13 6 17 21 17 58 0 68 35 334 60 455 133 646 449 1257 889 1720 511 536
1119 883 1818 1039 162 36 435 76 523 76 37 0 51 4 58 18 5 9 49 162 98 339
49 177 92 319 96 315 3 -4 45 -146 92 -317z"/>
<path d="M4920 7964 c-19 -2 -80 -9 -135 -15 -216 -22 -496 -92 -705 -176
-972 -387 -1642 -1243 -1787 -2283 -24 -174 -24 -566 0 -740 121 -866 603
-1605 1343 -2062 328 -202 712 -338 1115 -395 173 -24 565 -24 739 0 587 82
1125 333 1547 720 502 461 815 1058 910 1737 24 174 24 566 0 740 -131 937
-692 1735 -1521 2161 -302 155 -597 249 -926 294 -109 15 -504 28 -580 19z
m584 -244 c565 -84 1062 -335 1472 -744 409 -409 657 -901 745 -1477 32 -204
32 -552 1 -754 -90 -582 -336 -1071 -746 -1481 -411 -410 -900 -657 -1477
-745 -206 -32 -552 -32 -757 0 -576 88 -1069 337 -1478 745 -409 410 -657 901
-745 1477 -32 206 -32 552 0 758 88 577 335 1066 745 1477 454 453 1035 720
1676 768 122 9 428 -4 564 -24z"/>
<path d="M5086 7663 c-2 -10 -12 -56 -21 -103 -46 -233 -338 -1626 -356 -1692
-5 -21 -15 -38 -21 -38 -17 0 -128 67 -363 220 -316 205 -435 274 -435 252 0
-19 126 -217 299 -471 247 -364 321 -485 321 -525 0 -22 -38 -35 -498 -168
-64 -18 -125 -49 -116 -57 19 -18 132 -53 308 -95 213 -52 248 -65 271 -100
31 -46 14 -79 -211 -421 -239 -364 -371 -581 -361 -592 11 -10 141 69 407 247
241 161 367 240 382 240 9 0 39 -132 204 -890 180 -825 204 -933 214 -944 12
-12 34 37 58 129 12 44 91 400 176 790 199 912 198 906 213 912 14 6 179 -91
355 -209 220 -146 423 -266 434 -255 8 8 -123 213 -379 595 -141 210 -257 389
-257 396 0 16 49 33 266 95 166 48 341 107 367 126 11 8 14 15 8 19 -16 10
-157 52 -311 92 -175 46 -316 92 -329 108 -14 17 44 117 253 440 192 296 276
429 317 497 29 49 37 79 21 79 -15 0 -146 -85 -387 -252 -232 -160 -328 -218
-359 -218 -9 0 -20 8 -25 18 -5 10 -46 187 -91 393 -162 752 -192 888 -240
1086 -65 268 -79 313 -95 313 -8 0 -16 -8 -19 -17z m175 -2235 c72 -33 134
-94 168 -167 22 -47 26 -70 26 -141 0 -75 -4 -93 -31 -151 -73 -153 -188 -219
-343 -198 -255 35 -382 319 -242 541 35 55 82 92 158 124 79 33 183 30 264 -8z"/>
</g>
</svg>
