<?xml version="1.0" standalone="no"?>
<!DOCTYPE svg PUBLIC "-//W3C//DTD SVG 20010904//EN"
 "http://www.w3.org/TR/2001/REC-SVG-20010904/DTD/svg10.dtd">
<svg version="1.0" xmlns="http://www.w3.org/2000/svg"
 width="1024.000000pt" height="1024.000000pt" viewBox="0 0 1024.000000 1024.000000"
 preserveAspectRatio="xMidYMid meet">
<metadata>
Created by potrace 1.11, written by Peter Selinger 2001-2013
</metadata>
<g transform="translate(0.000000,1024.000000) scale(0.100000,-0.100000)"
fill="#000000" stroke="none">
<path d="M752 10215 c-333 -99 -606 -367 -723 -710 l-24 -70 0 -4315 0 -4315
24 -70 c118 -346 394 -615 729 -710 l87 -25 4300 2 4300 3 70 26 c350 131 604
393 700 725 l25 86 0 4278 0 4278 -25 86 c-96 332 -350 594 -700 725 l-70 26
-4305 2 -4305 2 -83 -24z m4447 -916 c21 -79 63 -237 92 -351 l54 -207 65 -6
c688 -63 1241 -254 1775 -616 923 -624 1499 -1616 1591 -2735 l6 -81 359 -94
c197 -51 355 -96 351 -100 -4 -3 -151 -43 -327 -89 -176 -46 -334 -87 -351
-92 l-31 -8 -12 -133 c-86 -940 -529 -1801 -1251 -2429 -99 -86 -316 -245
-432 -317 -513 -320 -1050 -498 -1658 -549 l-84 -7 -37 -140 c-20 -77 -58
-221 -83 -320 -75 -285 -67 -263 -77 -240 -4 11 -26 90 -49 175 -22 85 -62
238 -89 340 l-48 185 -39 3 c-820 56 -1593 383 -2199 929 -683 617 -1100 1453
-1186 2378 -6 66 -12 121 -14 123 -2 2 -161 45 -354 96 -192 50 -352 94 -355
97 -3 3 156 47 354 98 l359 94 6 76 c80 943 466 1745 1153 2393 559 527 1326
877 2080 949 64 6 135 14 156 18 l39 6 37 140 c21 77 59 221 84 320 55 210 66
248 72 242 3 -3 22 -69 43 -148z"/>
<path d="M4905 8004 c-739 -56 -1391 -359 -1896 -880 -421 -436 -686 -977
-784 -1604 -26 -164 -31 -540 -10 -720 49 -425 170 -795 376 -1147 472 -805
1288 -1328 2222 -1423 156 -16 555 -8 697 15 520 81 983 281 1383 597 130 103
382 355 477 478 207 269 372 576 473 880 183 553 194 1156 32 1719 -51 178
-98 298 -186 477 -375 763 -1076 1326 -1902 1528 -214 53 -400 76 -632 80
-110 2 -222 2 -250 0z m570 -229 c884 -131 1633 -676 2030 -1480 344 -694 368
-1502 67 -2223 -323 -774 -1004 -1360 -1821 -1567 -699 -177 -1456 -60 -2072
321 -233 144 -517 395 -683 604 -237 297 -420 668 -510 1030 -172 695 -66
1418 298 2026 367 615 957 1055 1656 1235 96 24 261 52 430 73 81 10 500 -3
605 -19z"/>
<path d="M4836 6777 c-115 -524 -212 -957 -215 -964 -4 -8 -156 90 -416 267
-226 153 -411 277 -412 276 -2 -1 153 -235 343 -520 190 -285 342 -522 337
-526 -4 -5 -159 -50 -343 -100 -184 -51 -340 -95 -347 -99 -7 -3 119 -41 280
-84 357 -95 397 -107 397 -116 0 -3 -155 -238 -344 -521 -189 -283 -343 -516
-341 -518 2 -2 72 44 156 101 85 58 271 184 413 281 143 97 261 174 262 173 3
-3 208 -1011 340 -1667 53 -264 58 -281 68 -225 7 37 88 405 319 1453 52 232
96 425 100 428 5 5 92 -53 622 -413 106 -73 196 -133 199 -133 4 0 -150 234
-341 520 -190 286 -344 522 -341 525 3 3 163 49 356 102 193 54 346 100 339
104 -7 3 -169 48 -362 99 -192 51 -351 94 -353 95 -1 1 153 235 344 519 190
285 344 519 342 521 -1 1 -181 -118 -398 -266 -216 -148 -397 -266 -401 -261
-3 4 -11 32 -17 62 -14 72 -279 1379 -331 1634 -23 110 -42 201 -44 202 -1 1
-96 -426 -211 -949z m334 -1349 c69 -31 131 -92 166 -160 39 -75 45 -199 14
-280 -41 -109 -142 -193 -264 -218 -156 -32 -329 66 -386 218 -30 77 -25 205
10 272 49 96 107 148 203 182 73 26 183 20 257 -14z"/>
</g>
</svg>
