<svg version="1" xmlns="http://www.w3.org/2000/svg" width="466.667" height="466.667" viewBox="0 0 350.000000 350.000000"><path d="M97.5 44.1c-19.7 4.8-37.6 18.2-48.3 36C37.8 99 35 123.4 41.9 144c6.1 18.2 7.6 20.1 55.1 70.5 14.4 15.3 36.6 39 57.4 61.3 10.9 11.6 20 21.2 20.1 21.2.3 0 19.6-20.6 36.6-39 5.8-6.3 18.9-20.5 29-31.5 31.7-34.2 51-55.3 54.1-59.2 4.6-5.7 10.7-18.6 12.9-27.2 2.7-10 2.9-27.8.5-37.5-5.5-22.8-19.7-41-40.3-51.8-13.2-7-23.4-9.2-39.3-8.5-6.9.3-15.2 1.3-18.5 2.2-8.4 2.3-20.6 8.7-28.9 15.1l-6.9 5.4-3.6-3.1C149.6 44.7 122.4 38 97.5 44.1zM189 111v24h52v30l-25.7.2-25.8.3-.3 26.2-.2 26.3h-32v-53h-52v-30h52V87h32v24z"/></svg>