<?xml version="1.0" standalone="no"?>
<!DOCTYPE svg PUBLIC "-//W3C//DTD SVG 20010904//EN"
 "http://www.w3.org/TR/2001/REC-SVG-20010904/DTD/svg10.dtd">
<svg version="1.0" xmlns="http://www.w3.org/2000/svg"
 width="1459.000000pt" height="1459.000000pt" viewBox="0 0 1459.000000 1459.000000"
 preserveAspectRatio="xMidYMid meet">
<metadata>
Created by potrace 1.11, written by Peter Selinger 2001-2013
</metadata>
<g transform="translate(0.000000,1459.000000) scale(0.100000,-0.100000)"
fill="#000000" stroke="none">
<path d="M6920 14449 c-3470 -196 -6303 -2861 -6699 -6304 -36 -310 -45 -476
-45 -835 1 -804 112 -1500 358 -2245 686 -2070 2294 -3725 4343 -4469 1338
-486 2816 -559 4198 -209 1073 271 2047 778 2905 1512 163 139 500 469 654
641 862 958 1449 2134 1695 3392 91 466 131 880 131 1373 0 321 -10 515 -41
800 -212 1951 -1232 3736 -2814 4925 -1346 1012 -3004 1514 -4685 1419z m546
-1094 c75 -286 136 -521 137 -521 1 -1 65 -7 142 -13 319 -27 607 -73 904
-147 1497 -372 2770 -1356 3518 -2719 374 -680 611 -1490 659 -2247 4 -60 7
-108 8 -108 1 0 246 -65 545 -144 l545 -143 -75 -20 c-41 -11 -287 -75 -546
-143 l-473 -124 0 -47 c0 -69 -28 -335 -51 -489 -202 -1338 -888 -2552 -1933
-3423 -862 -718 -1926 -1156 -3043 -1253 -109 -10 -199 -18 -200 -18 0 -1 -63
-237 -138 -526 -76 -289 -141 -531 -144 -538 -4 -7 -67 216 -141 495 -73 279
-137 522 -142 539 l-8 31 -152 12 c-1529 123 -2920 865 -3884 2072 -627 786
-1025 1730 -1153 2737 -12 90 -24 214 -27 277 -4 62 -10 118 -13 124 -4 6
-241 71 -526 146 -286 74 -528 139 -538 143 -11 5 175 58 520 148 506 132 538
142 545 165 3 13 14 111 22 217 57 691 284 1446 622 2074 267 496 567 900 964
1299 445 446 912 782 1475 1059 656 323 1293 494 2062 556 l83 6 10 37 c5 20
70 262 142 539 88 335 135 497 140 485 4 -10 69 -252 144 -538z"/>
<path d="M7020 11729 c-1483 -64 -2843 -882 -3603 -2167 -590 -995 -763 -2197
-481 -3327 194 -775 592 -1474 1163 -2046 977 -976 2323 -1434 3701 -1258
1304 166 2473 920 3181 2051 396 632 622 1364 658 2125 44 946 -210 1868 -732
2653 -548 825 -1363 1445 -2305 1756 -495 164 -1039 237 -1582 213z m715 -358
c83 -11 200 -30 260 -41 1646 -315 2947 -1625 3249 -3270 52 -285 61 -392 61
-745 0 -352 -9 -459 -61 -745 -175 -959 -701 -1836 -1469 -2449 -624 -499
-1367 -800 -2163 -876 -179 -17 -562 -20 -737 -4 -967 83 -1862 502 -2550
1194 -684 687 -1095 1579 -1176 2552 -17 208 -6 654 20 853 82 603 285 1164
601 1661 665 1045 1758 1732 2980 1873 207 24 206 24 530 21 236 -3 339 -8
455 -24z"/>
<path d="M7147 11315 c-3 -11 -151 -675 -327 -1475 -176 -800 -322 -1458 -323
-1462 -1 -3 -289 189 -641 428 -351 239 -640 433 -642 431 -2 -2 237 -364 531
-805 294 -441 535 -805 535 -809 0 -4 -244 -75 -543 -157 -298 -82 -546 -152
-550 -156 -5 -4 25 -16 65 -27 40 -11 281 -76 536 -144 254 -68 462 -127 462
-131 0 -5 -241 -369 -535 -810 -294 -441 -533 -804 -531 -806 2 -2 293 193
646 433 353 240 644 434 646 432 3 -2 137 -658 299 -1458 162 -800 297 -1465
301 -1479 6 -24 7 -24 15 -5 4 11 153 677 330 1481 l322 1460 639 -434 c352
-239 641 -432 643 -430 2 2 -237 365 -531 807 -295 442 -532 807 -527 811 4 4
249 74 543 155 294 81 538 151 543 154 4 4 -226 70 -510 146 -285 76 -539 144
-565 152 l-47 13 536 801 c294 440 533 802 531 804 -2 3 -282 -185 -622 -416
-341 -231 -620 -418 -621 -417 -2 2 -134 651 -294 1443 -161 792 -295 1451
-300 1465 -7 23 -8 24 -14 5z m137 -3505 c218 -75 356 -267 356 -492 0 -151
-46 -264 -150 -369 -238 -241 -626 -200 -812 85 -54 83 -78 169 -78 275 1 104
11 155 52 241 62 129 218 250 363 279 71 14 200 6 269 -19z"/>
</g>
</svg>
